<?xml version="1.0"?><svg width="640" height="480" xmlns="http://www.w3.org/2000/svg">
 <title>grey spiral</title>
 <metadata id="metadata11536">image/svg+xml</metadata>
 <g>
  <title>Layer 1</title>
  <g id="layer1">
   <g id="g11596">
    <path fill="#9ebdc2" fill-rule="evenodd" stroke="#ffffff" stroke-width="10px" id="path5941" d="m155.726257,313.263702c-33.084602,-20.789337 24.528244,69.525696 63.575012,70.987518c39.046783,1.4617 79.790344,-10.290924 108.319946,-37.887787c27.261383,-26.370148 45.812378,-78.250488 12.721954,-108.076218c-4.799713,-4.326187 -13.40976,-8.688217 -20.412994,-8.235519c6.334442,3.095291 11.609924,11.178024 13.603485,17.324417c13.744293,42.375107 -28.261505,78.029312 -65.055664,87.235825c-38.505829,9.634766 -79.667114,-0.558929 -112.75174,-21.348236z"/>
    <path fill="#40005c" fill-rule="evenodd" stroke="#ffffff" stroke-width="10px" d="m219.392151,384.20108c-39.046768,-1.461792 56.004944,47.946899 90.551331,29.689423c34.546417,-18.257416 63.955048,-48.807312 74.863953,-86.971771c10.424042,-36.467896 0.549469,-90.67305 -43.020599,-99.957626c-6.319763,-1.346786 -15.957275,-0.819351 -21.795898,3.074326c7.033417,-0.486633 15.643463,3.875488 20.443207,8.201675c33.090454,29.82576 14.53949,81.70607 -12.721985,108.076218c-28.529633,27.596863 -69.273193,39.349487 -108.320007,37.887756z" id="path6847"/>
    <path fill="#40005c" fill-rule="evenodd" stroke="#ffffff" stroke-width="10px" id="path6851" d="m309.997162,413.801666c-34.546417,18.257477 72.475189,13.520782 93.264496,-19.563812c20.789307,-33.084625 30.983032,-74.24588 21.348175,-112.75174c-9.206543,-36.794098 -44.860718,-78.799927 -87.235809,-65.055618c-6.146362,1.993607 -14.229065,7.269135 -17.338562,13.560471c5.847778,-3.938141 15.485352,-4.465485 21.805115,-3.11879c43.570038,9.284576 53.44458,63.489822 43.020599,99.957718c-10.908966,38.164459 -40.317566,68.714355 -74.864014,86.971771z"/>
    <path fill="#40005c" fill-rule="evenodd" stroke="#ffffff" stroke-width="10px" d="m403.263672,394.134125c-20.789337,33.084534 69.525696,-24.52829 70.987518,-63.575073c1.4617,-39.046814 -10.290833,-79.790344 -37.887787,-108.319931c-26.370148,-27.261368 -78.250488,-45.812424 -108.076233,-12.721985c-4.326111,4.799774 -8.688202,13.409775 -8.235443,20.41301c3.095306,-6.334412 11.177948,-11.609924 17.324402,-13.603455c42.375031,-13.744308 78.029327,28.26152 87.235779,65.055634c9.634857,38.505859 -0.558838,79.667114 -21.348236,112.751801z" id="path6855"/>
    <path fill="#40005c" fill-rule="evenodd" stroke="#ffffff" stroke-width="10px" id="path6859" d="m474.20105,330.468201c-1.461792,39.046722 47.946899,-56.004974 29.689514,-90.551331c-18.257507,-34.546417 -48.807312,-63.955048 -86.971863,-74.863968c-36.467834,-10.424026 -90.673065,-0.549454 -99.957642,43.020615c-1.34668,6.319702 -0.819336,15.95726 3.074402,21.795898c-0.486633,-7.033432 3.875427,-15.643509 8.20163,-20.443192c29.825745,-33.090439 81.706146,-14.53949 108.076202,12.721878c27.596954,28.529694 39.349579,69.273315 37.887756,108.320099z"/>
    <path fill="#40005c" fill-rule="evenodd" stroke="#ffffff" stroke-width="10px" d="m503.801727,239.86319c18.257416,34.546417 13.520721,-72.475174 -19.563904,-93.264496c-33.084625,-20.789314 -74.24588,-30.983025 -112.751709,-21.34816c-36.794128,9.206436 -78.799927,44.860733 -65.055603,87.235733c1.993622,6.146393 7.269073,14.229126 13.560425,17.338608c-3.938141,-5.847778 -4.465485,-15.485336 -3.118805,-21.80513c9.284637,-43.569977 63.489868,-53.44455 99.957733,-43.020523c38.164459,10.90892 68.714355,40.317551 86.971863,74.863968z" id="path6863"/>
    <path fill="#40005c" fill-rule="evenodd" stroke="#ffffff" stroke-width="10px" id="path6867" d="m484.134094,146.596619c33.084534,20.789398 -24.52829,-69.525719 -63.575073,-70.987442c-39.046753,-1.461815 -79.790283,10.29081 -108.319946,37.887772c-27.261353,26.370148 -45.812347,78.250473 -12.721863,108.076218c4.799683,4.326187 13.409729,8.688217 20.412964,8.235428c-6.334412,-3.095291 -11.609924,-11.177933 -13.603516,-17.324417c-13.744324,-42.375 28.261536,-78.029297 65.055664,-87.235733c38.505829,-9.634865 79.667175,0.558853 112.75177,21.348175z"/>
    <path fill="#40005c" fill-rule="evenodd" stroke="#ffffff" stroke-width="10px" d="m420.46817,75.659286c39.046814,1.461823 -56.004944,-47.946882 -90.551331,-29.689484c-34.546387,18.257401 -63.955048,48.807304 -74.863968,86.971756c-10.423981,36.467896 -0.549408,90.673157 43.020615,99.957718c6.319763,1.34671 15.957275,0.819351 21.795898,-3.074402c-7.033417,0.486633 -15.643494,-3.875412 -20.443146,-8.201599c-33.090485,-29.825745 -14.53949,-81.706146 12.721924,-108.07621c28.529633,-27.596962 69.273224,-39.349586 108.320007,-37.887779z" id="path6871"/>
    <path fill="#40005c" fill-rule="evenodd" stroke="#ffffff" stroke-width="10px" id="path6875" d="m329.863159,46.05864c34.546417,-18.257401 -72.475128,-13.520798 -93.26445,19.563896c-20.789352,33.084526 -30.983032,74.245872 -21.348206,112.751656c9.206528,36.794174 44.860733,78.799942 87.235764,65.055603c6.146423,-1.993515 14.229095,-7.269043 17.338654,-13.560379c-5.847839,3.938141 -15.485382,4.465485 -21.805145,3.11879c-43.570038,-9.284668 -53.444611,-63.489914 -43.020584,-99.957718c10.908951,-38.164551 40.317581,-68.714371 74.863968,-86.971848z"/>
    <path fill="#40005c" fill-rule="evenodd" stroke="#ffffff" stroke-width="10px" d="m236.596619,65.72625c20.789368,-33.084518 -69.525711,24.528297 -70.987427,63.575005c-1.461823,39.046799 10.290802,79.790329 37.887726,108.320007c26.370148,27.261368 78.250519,45.812332 108.076202,12.721893c4.326202,-4.799683 8.688232,-13.409775 8.235474,-20.41301c-3.095276,6.334412 -11.177979,11.60994 -17.324402,13.603546c-42.375061,13.744324 -78.029297,-28.26152 -87.235779,-65.055695c-9.634811,-38.505798 0.558899,-79.667137 21.348206,-112.751747z" id="path6879"/>
    <path fill="#40005c" fill-rule="evenodd" stroke="#ffffff" stroke-width="10px" id="path6883" d="m165.659256,129.392181c1.461823,-39.046722 -47.946884,56.004913 -29.689438,90.551331c18.257431,34.546341 48.807297,63.955048 86.971756,74.863953c36.467911,10.42395 90.673111,0.549469 99.957657,-43.020599c1.346771,-6.319778 0.819366,-15.95726 -3.07431,-21.795898c0.486572,7.033432 -3.875488,15.643433 -8.20163,20.443207c-29.825806,33.090424 -81.706146,14.539398 -108.076263,-12.721985c-27.596909,-28.529678 -39.349533,-69.273209 -37.887772,-108.320007z"/>
    <path fill="#40005c" fill-rule="evenodd" stroke="#ffffff" stroke-width="10px" d="m136.058655,219.997192c-18.257401,-34.546417 -13.52076,72.475098 19.563843,93.264404c33.084579,20.789398 74.24588,30.983124 112.751709,21.348267c36.794128,-9.206543 78.799988,-44.860718 65.055603,-87.23584c-1.993561,-6.146378 -7.269104,-14.229034 -13.560425,-17.338593c3.938141,5.847855 4.465485,15.485428 3.118805,21.80513c-9.284637,43.570053 -63.489838,53.444626 -99.957733,43.020615c-38.164505,-10.908936 -68.714371,-40.317642 -86.971802,-74.863983z" id="path6887"/>
   </g>
  </g>
 </g>
</svg>