<?xml version="1.0" encoding="UTF-8"?>
<svg viewBox="0 0 897.14 897.14" xmlns="http://www.w3.org/2000/svg">
 <g fill="none" stroke="#ffffff">
  <path d="m886.37 444.55a438.3 434.77 0 1 1 -876.59 0 438.3 434.77 0 1 1 876.59 0z" stroke-width="20"/>
  <path d="m435.45 429.14c-21.252 0.75839-11.502-28.421-1.254-35.505 27.771-19.196 62.214 5.7863 71.897 32.984 17.32 48.65-20.555 97.413-66.881 109.04-67.985 17.056-132.22-35.587-145.05-101.47-17.102-87.814 50.25-168.63 135.02-182.56 106.67-17.538 203.42 65.428 218.2 169.96 17.902 126.6-79.927 240.38-203.15 256.1-145.21 18.517-274.91-95.252-291.35-238.45-18.981-165.33 109.59-312.32 271.28-329.63 183.72-19.669 346.52 125.07 364.5 306.94 20.174 204.03-139.25 384.33-339.42 403.16-222.22 20.901-418.18-154.88-437.65-375.42-0.66007-7.4784-1.1233-14.974-1.3896-22.478" fill-rule="evenodd" stroke-width="20"/>
 </g>
</svg>
